<?xml version="1.0" encoding="UTF-8"?>
<svg width="61.0000037px" height="70px" viewBox="0 0 61.0000037 70" version="1.1" xmlns="http://www.w3.org/2000/svg" xmlns:xlink="http://www.w3.org/1999/xlink">
    <title>Group</title>
    <g id="home" stroke="none" stroke-width="1" fill="none" fill-rule="evenodd">
        <g id="Group" transform="translate(0, 0)" fill="#FFFFFF">
            <line x1="13.0015" y1="63.019" x2="12.9985" y2="62.981" id="Path" fill-rule="nonzero"></line>
            <polygon id="Path" fill-rule="nonzero" points="26.0155248 55 26.4724941 56.5277729 28 56.5411744 26.7546406 57.4715218 27.2122848 59 25.9851502 58.0470816 24.7397908 58.9781344 25.2264597 57.4588256 24 56.5059072 25.5281809 56.5193088"></polygon>
            <polygon id="Path" fill-rule="nonzero" points="31.0155248 57 31.4724941 58.5284782 33 58.5411744 31.7546406 59.4722271 32.2122848 61 30.9851502 60.047787 29.7397908 60.9788397 30.2271347 59.4588256 29 58.5066126 30.5281809 58.5200141"></polygon>
            <polygon id="Path" fill-rule="nonzero" points="36.0151899 55 36.4722363 56.5277729 38 56.5411744 36.7544304 57.4715218 37.2121519 59 35.9848101 58.0470816 34.7392405 58.9781344 35.2266667 57.4588256 34 56.5059072 35.5277637 56.5193088"></polygon>
            <path d="M47.998907,33.9258883 C48.008108,34.0712364 47.958817,34.2516001 47.8661498,34.3705213 C46.5398915,36.1497138 43.1098908,35.858357 41.6180146,35.0688527 C41.1803099,34.8369564 40.7708655,34.5112446 40.3771942,34.037542 C39.8553662,33.4105633 39.830392,33.1786671 39.6128541,32.3891628 C39.5951093,32.3250775 39.5123004,32.0205072 39.5123004,32.0205072 C39.2211545,31.9385838 38.928037,31.861285 38.6322906,31.7958784 C34.2440715,30.8075115 29.9353754,31.3571915 25.6700554,32.5272435 C22.4569353,33.4099026 19.3700003,34.6182737 16.453941,36.2507968 C16.045811,36.4780683 15.6271655,36.6861803 15.0297578,37 C15.2354659,33.6246214 15.4069988,30.4514087 15.6403098,27.2821601 C15.6876292,26.6234691 15.5101814,26.377038 14.8877996,26.1775148 C8.39715237,24.099698 5.87870764,16.0493969 10.0231002,10.6292352 C11.6891382,8.45033549 13.9190659,7.63902898 16.5985281,8.14576521 C18.2809964,8.46354895 19.7715581,9.23653642 21.1201616,10.3398604 C20.8822501,10.2400988 20.6502535,10.1231597 20.4057698,10.0438789 C19.3778868,9.71816707 18.3670914,9.29203295 17.3142343,9.10572315 C13.7639633,8.48006578 11.1843977,10.2354741 10.307674,13.7786636 C9.14834817,18.4588715 12.5592898,23.0697087 17.4134737,23.3835284 C17.9366161,23.4178834 18.4617303,23.4489351 19.1255166,23.4892361 C18.9658135,26.0975733 18.8074249,28.7006251 18.6378637,31.4886654 C19.2589311,31.2838568 19.6933496,31.1411514 20.1284254,30.996464 C22.0271172,30.3635392 23.9415821,29.8680344 25.8783923,29.5588394 C25.8843072,29.5575181 25.8948226,29.5542147 25.9092813,29.5528934 C27.1763903,29.3507274 28.4527002,29.2318063 29.7388683,29.2033973 C33.0091661,29.0369077 37.6254385,29.1366694 40.600647,30.622523 C40.8622183,30.4296065 41.1612507,30.3087033 41.4668553,30.2076204 C42.0511187,30.0147038 42.5696607,29.9552433 43.0638858,29.992241 C44.7476685,30.1144655 47.8260597,31.7020628 47.998907,33.9258883 Z" id="Path"></path>
            <path d="M18,6.66314122 C18.1076999,4.35263429 21.0641931,1.30811551 24.0469545,0.437682595 C28.6478411,-0.905233013 32.3713676,0.818330626 35.8446889,5.93778046 C37.3708751,5.15385847 38.9942538,4.67139374 40.7332129,4.6680664 C41.1633558,4.66673546 41.5856181,4.69202327 42,4.74060248 C39.4493515,5.72616145 37.6131998,7.01583957 36.361517,8.14580523 C35.1958627,9.1972456 34.3959941,10.2280564 33.8863898,11 C33.5783944,6.25587445 31.7199146,2.78412483 26.8130028,2.03680361 C22.8747332,1.43788188 20.039074,3.35975516 18,6.66314122 Z" id="Path" fill-rule="nonzero"></path>
            <path d="M52.4951286,18.370506 C51.5440412,21.3460561 49.2329512,22.9328414 45.965548,22.8377654 C45.3286591,22.8194059 44.7002621,22.7577705 44.0783973,22.6626945 L43.5283866,27.1660172 L43.3043324,29 L41.7692669,28.3600403 C41.6876145,28.3265998 41.5772204,28.2846352 41.4785843,28.2466049 L41.170918,28.1331694 C40.9631942,28.0564529 40.754164,27.9836706 40.5444806,27.911544 C40.1244606,27.7672908 39.699868,27.630906 39.2733157,27.4997667 C38.4195581,27.2374881 37.5566553,27.000126 36.6865671,26.7916146 C34.947044,26.373936 33.178126,26.0631359 31.3954904,25.9241283 C29.6161209,25.7883991 27.8125822,25.8224953 26.0632608,26.1982094 C25.1892533,26.3850828 24.3341892,26.667688 23.5268101,27.0676628 C22.719431,27.4656705 21.9708416,27.9987516 21.3235012,28.6505138 C21.8865763,27.9253136 22.5789888,27.2886324 23.3595859,26.7758779 C24.1388766,26.2618119 24.994594,25.8579029 25.8816659,25.551037 C27.6590757,24.933371 29.5429603,24.6658469 31.415087,24.579295 C33.2911329,24.4953659 35.1691386,24.5910975 37.0327734,24.8035432 C37.9649174,24.909766 38.8931421,25.0454951 39.8187539,25.2094192 C40.1643069,25.2717104 40.5092068,25.3385914 40.8541066,25.4074395 L40.8547598,22.8961224 C40.8541066,22.307307 40.4843844,21.7794714 39.9298012,21.586041 C39.8017702,21.540798 39.673086,21.4948992 39.5457082,21.4483448 C36.1731367,20.2294052 32.8338794,18.9206352 29.4593482,17.7049741 C28.3541011,17.3076221 27.2338299,16.9712499 26.0913493,16.7633941 C26.0155758,16.7942119 25.9633183,16.8309309 25.9371895,16.8735511 C25.7738847,17.1482879 25.569427,17.4722019 25.223874,17.4748247 L24.6307508,17.480726 L19.9465148,17.4551538 C19.4886081,17.459088 19.4487617,17.4669563 19.0169837,17.3259816 C19.4670518,17.1463208 19.4696647,17.1581234 19.9582728,17.1522221 L24.6274847,17.1076347 L24.6242186,16.8433891 L19.9412891,16.8886321 C19.4833823,16.8925663 19.4435359,16.8663385 19.0104515,16.7240523 C19.4605196,16.5443915 19.4631325,16.5207865 19.9517406,16.5155409 L24.6209525,16.4709535 L24.6183396,16.2132649 L19.9360633,16.2585079 C19.4781566,16.2624421 19.4383102,16.2349028 19.0052258,16.0939281 C19.4552939,15.9142673 19.4579068,15.8893509 19.9465148,15.8854167 L24.6157268,15.8408293 L24.6124607,15.5765837 L19.9295311,15.6218267 C19.4716244,15.6257609 19.431778,15.634285 19,15.4926545 C19.4500681,15.3129937 19.452681,15.3247963 19.9412891,15.318895 L24.6091946,15.2034924 L25.2023177,15.1975912 C25.548524,15.1949684 25.7588606,15.5129811 25.9280444,15.7857508 C25.9868342,15.8808268 26.1390343,15.9024648 26.2350575,15.9437737 C26.3741932,16.0027863 26.501571,15.979837 26.6491986,15.9850825 C26.7987858,15.9909838 26.9470666,15.9975408 27.0953474,16.0067205 C27.3814575,16.0231129 27.6662611,16.0454066 27.9504115,16.0742572 C29.1144484,16.193594 30.2673806,16.4093181 31.409208,16.6670068 C32.5477693,16.9240397 33.6771856,17.2223816 34.8092147,17.5115437 C37.648106,18.2373996 40.4843844,18.9894833 43.3494045,19.5966582 C44.4539984,19.8307418 45.6415512,19.7920557 46.7801125,19.7140278 C48.1512199,19.6202633 48.9919132,18.7881846 49.3701272,17.4459741 C50.2349897,14.3760036 49.1375811,11.0614584 46.6141948,9.22944271 C44.0411638,7.36136372 40.6764309,7.33579156 38.0086831,9.18419966 C37.3946569,9.60909092 36.8041466,10.0661113 36.1339435,10.574276 C36.6310435,9.8844834 37.3358672,9.04519203 38.2960996,8.18819686 C39.1616152,7.41578652 40.1133558,6.74107494 41.1180072,6.16340643 C42.2761651,5.49787461 43.5812974,4.96151497 44.9386872,5.00216814 C46.3666247,5.04413271 47.6083946,5.80867469 48.7267062,6.63616352 C50.0253062,7.59675872 51.096586,8.85962995 51.8379899,10.2975721 C53.1182999,12.7820057 53.3456202,15.7083787 52.4951286,18.370506 Z" id="Path" fill-rule="nonzero"></path>
            <path d="M21,10 C21.0494823,9.64054921 21.1392103,9.28682672 21.2487312,8.94098064 C21.3575924,8.59370248 21.4921843,8.25573282 21.647229,7.9263556 C21.9559988,7.26688512 22.3498782,6.64393256 22.8348051,6.09473185 C23.317093,5.5448151 23.8904283,5.07079832 24.5297402,4.7185079 L24.7698944,4.58747305 C24.852365,4.54880703 24.9368149,4.51515327 25.0199452,4.47863536 L25.2713155,4.37194579 C25.3551056,4.33685995 25.4428542,4.31466279 25.5286236,4.28530526 C25.7014819,4.23160245 25.8736805,4.17360342 26.0511571,4.14424588 L26.3157227,4.09125911 C26.4041311,4.07264214 26.4925396,4.05545724 26.5816078,4.0490129 C27.2941535,3.95019974 28.0093382,4.01034688 28.6961531,4.14424588 C28.8670321,4.1829119 29.0385708,4.21942981 29.2081303,4.26095998 C29.3750508,4.31179864 29.5406516,4.36693352 29.7055928,4.42206841 L29.9530045,4.50512875 L30.1931587,4.60609003 L30.6701685,4.81374088 C30.8271924,4.88606066 30.976959,4.9748493 31.1300244,5.05576153 C31.2811104,5.14025395 31.4361551,5.21543788 31.5819631,5.30923878 C31.8715997,5.4989887 32.1645351,5.68086221 32.4416362,5.88708099 C32.714119,6.10117618 32.9892408,6.30739496 33.249188,6.53652694 C33.5058364,6.76995514 33.7565469,7.00982768 34,7.2568606 C32.7715185,6.68904292 31.5806435,6.11764504 30.3600792,5.73098483 C29.1434734,5.3536331 27.9057552,5.13094546 26.7142205,5.2827454 C26.6390073,5.28560955 26.5657734,5.2999303 26.4918798,5.31425105 L26.2715185,5.35506518 C26.1224117,5.37439819 25.9812221,5.42595289 25.8367337,5.46390287 C25.7648193,5.48466795 25.6909257,5.4989887 25.6203309,5.52548209 L25.4092063,5.60496224 C25.3392712,5.63217167 25.2673569,5.6558009 25.1980816,5.68515844 C25.1301259,5.71881219 25.0608506,5.7496018 24.9922351,5.78182349 C24.4426512,6.03816489 23.9253959,6.38830719 23.4444275,6.80862117 C22.9614799,7.22678703 22.521417,7.72013682 22.1156618,8.25788093 C21.7072676,8.79276089 21.3384592,9.37561536 21,10 Z" id="Path" fill-rule="nonzero"></path>
            <g transform="translate(0, 37)" fill-rule="nonzero" id="Path">
                <path d="M1.01866131,3.87109635 C1.69841562,2.65182724 2.62682887,1.70166113 3.8032518,1.02126246 C4.97967474,0.340863787 6.29893048,0 7.76101903,0 C9.47111727,0 10.9695633,0.449169435 12.256357,1.34684385 C13.5425015,2.24451827 14.4416989,3.48637874 14.9533001,5.0717608 L11.4227328,5.0717608 C11.0721432,4.32358804 10.5787208,3.7627907 9.94246553,3.38870432 C9.30685954,3.01461794 8.57191982,2.82724252 7.73894487,2.82724252 C6.84688906,2.82724252 6.05416699,3.04053156 5.36012939,3.46710963 C4.66544256,3.89368771 4.12462562,4.49568106 3.73767856,5.27375415 C3.35008226,6.05182724 3.15660873,6.96478405 3.15660873,8.01129568 C3.15660873,9.04385382 3.35008226,9.95215947 3.73767856,10.738206 C4.12462562,11.523588 4.6660918,12.1295681 5.36012939,12.5554817 C6.05416699,12.9820598 6.8475383,13.1953488 7.73894487,13.1953488 C8.57191982,13.1953488 9.30685954,13.0046512 9.94246553,12.6232558 C10.5780715,12.2418605 11.0714939,11.6770764 11.4227328,10.9289037 L14.9533001,10.9289037 C14.4410497,12.5302326 13.5463969,13.7754153 12.2673941,14.6651163 C10.987742,15.5554817 9.48604979,16 7.76166827,16 C6.29957972,16 4.98032398,15.6598007 3.80390104,14.9787375 C2.62682887,14.2983389 1.69906486,13.351495 1.01931055,12.1401993 C0.339556239,10.9282392 0,9.55215947 0,8.01129568 C-0.00129477716,6.47109635 0.338906999,5.0910299 1.01866131,3.87109635 Z"></path>
                <polygon points="32.4730423 0.201993355 32.4730423 15.8657807 29.4034354 15.8657807 29.4034354 9.20066445 22.8474096 9.20066445 22.8474096 15.8657807 19.7778027 15.8657807 19.7778027 0.201993355 22.8474096 0.201993355 22.8474096 6.64252492 29.4034354 6.64252492 29.4034354 0.201993355"></polygon>
                <polygon points="40.7612405 2.73820598 40.7612405 6.66511628 45.9142587 6.66511628 45.9142587 9.15614618 40.7612405 9.15614618 40.7612405 13.3076412 46.5719388 13.3076412 46.5719388 15.8657807 37.6916337 15.8657807 37.6916337 0.179401993 46.5719388 0.179401993 46.5719388 2.73754153 40.7612405 2.73754153"></polygon>
                <polygon points="61 0.201993355 61 2.73754153 54.619269 2.73754153 54.619269 6.75415282 59.5093449 6.75415282 59.5093449 9.24518272 54.619269 9.24518272 54.619269 15.8651163 51.5496621 15.8651163 51.5496621 0.201328904 61 0.201328904"></polygon>
            </g>
            <path d="M6.75444064,17 C4.31193518,19.6693711 2.37675288,22.7115882 1,26 L2.24524774,26 C3.46120287,23.2382252 5.07167342,20.6980902 7,18.4610138 C6.88345279,17.9750862 6.80243066,17.4865738 6.75444064,17 Z" id="Path" fill-rule="nonzero"></path>
            <path d="M53.3768534,17 C53.3101318,17.3008484 53.2335255,17.5990864 53.1433278,17.8940613 C53.0988468,18.0408962 53.0512768,18.1831629 53,18.3241244 C54.9349259,20.5984338 56.5498353,23.1840331 57.7656507,26 L59,26 C57.6507414,22.7154666 55.759061,19.6750054 53.3768534,17 Z" id="Path" fill-rule="nonzero"></path>
            <path d="M55.6340133,54 C50.4173628,62.8694262 40.6563173,68.8499281 29.5,68.8499281 C18.3436827,68.8499281 8.5826372,62.8700655 3.3659867,54 L2,54 C3.41544596,56.5341218 5.20639184,58.8841298 7.34550489,60.9854563 C13.2630452,66.7984657 21.1309724,70 29.5,70 C37.8690276,70 45.7369548,66.7984657 51.6544951,60.9854563 C53.7936082,58.8841298 55.5839033,56.5341218 57,54 L55.6340133,54 Z" id="Path" fill-rule="nonzero"></path>
            <path d="M7.7533364,20 C6.27090044,21.8185488 5.00628931,23.8315096 4,26 L4.61543181,26 C5.54011351,24.0552427 6.67893849,22.239881 8,20.586423 C7.91225648,20.3945607 7.82942169,20.1995113 7.7533364,20 Z" id="Path" fill-rule="nonzero"></path>
            <path d="M52.2965309,20 C52.2044048,20.1656103 52.1047934,20.3257003 52,20.4790431 C53.3444652,22.152934 54.497193,24.0059293 55.4224845,26 L56,26 C55.0159781,23.8237579 53.7670937,21.8076058 52.2965309,20 Z" id="Path" fill-rule="nonzero"></path>
            <path d="M53.3117031,54 C48.3238188,62.0491417 39.5140072,67.4057725 29.5,67.4057725 C19.4859928,67.4057725 10.6761812,62.0491417 5.68829692,54 L5,54 C10.0552881,62.3911526 19.1463811,68 29.5,68 C39.8536189,68 48.9447119,62.3911526 54,54 L53.3117031,54 Z" id="Path" fill-rule="nonzero"></path>
            <g transform="translate(17, 59)" fill-rule="nonzero">
                <path d="M2.38611503,1.31808777 C2.37297577,1.17917312 2.32633138,1.05561588 2.24683884,0.945321835 C2.1673463,0.835027794 2.05829041,0.743581469 1.91967118,0.670284796 C1.76594179,0.588611361 1.61352634,0.548821739 1.46176784,0.550217866 C1.31000935,0.552312056 1.16876226,0.595591996 1.03868355,0.682151877 C0.908604844,0.768711757 0.801519846,0.892269005 0.718085522,1.05561588 C0.632680308,1.22315113 0.593262518,1.38929025 0.601146076,1.55473131 C0.609029634,1.72017238 0.660272762,1.87235023 0.755532423,2.01056681 C0.850792084,2.1487834 0.984812573,2.26466194 1.15627996,2.35610827 C1.36782211,2.4684965 1.56622499,2.50549387 1.74754682,2.4684965 C1.92952562,2.43149913 2.08128412,2.32888379 2.2047932,2.16134854 C1.82835329,1.97705976 1.64111879,1.88072699 1.26927763,1.68038275 C1.34351447,1.52471458 1.38096137,1.44653146 1.45519821,1.29086329 C2.03201188,1.60150157 2.32370353,1.74739685 2.91234254,2.01964164 C2.83744874,2.20253429 2.80000184,2.29398061 2.72510803,2.4761752 C2.61342429,2.6409182 2.46429365,2.77285221 2.27640218,2.86848692 C2.08851071,2.96412162 1.87565464,3.01019382 1.6391479,3.00530737 C1.40264115,3.00042093 1.16153567,2.93410489 0.919773218,2.8056612 C0.648447425,2.6618601 0.430992612,2.47128876 0.270693597,2.23953166 C0.110394581,2.00777456 0.0217045516,1.75856587 0.00330958262,1.49469785 C-0.0150853864,1.23082983 0.0433843366,0.978130822 0.174120009,0.734506643 C0.304855682,0.490882464 0.480264851,0.307989814 0.695748774,0.182338375 C0.91188966,0.0566869359 1.14576855,-0.00334652937 1.39804241,0.000143788383 C1.65031627,0.00363410613 1.89667747,0.0699501434 2.13975384,0.1990919 C2.42684675,0.351967818 2.64627245,0.548821739 2.8006588,0.796634299 C2.95504515,1.04444686 3.02271235,1.31669164 2.99971864,1.61476478 C2.75401441,1.49958429 2.6311623,1.44024889 2.38611503,1.31808777 Z" id="Path"></path>
                <path d="M3.80975424,3.94141059 C3.62449063,3.73408572 3.50558029,3.49814024 3.45236627,3.23706447 C3.39980922,2.9759887 3.42477382,2.715611 3.52397526,2.45593136 C3.62186277,2.19834591 3.77296431,1.99451135 3.97333808,1.84023931 C4.17371185,1.68596726 4.39773629,1.59312481 4.6473823,1.55822163 C4.89702831,1.52401652 5.1433895,1.55193906 5.39303551,1.64268732 C5.6446524,1.73413365 5.85553758,1.87304829 6.03094675,2.06222351 C6.20569896,2.25139874 6.32658018,2.47059069 6.39359043,2.72189357 C6.46060067,2.97319645 6.46060067,3.23287609 6.38899169,3.50023443 C6.31672574,3.76968696 6.18796095,3.99236923 5.99809859,4.16479093 C5.80823624,4.33721262 5.57961305,4.44611054 5.31485689,4.48939048 C5.04944376,4.53267042 4.77746101,4.50404981 4.50219343,4.40422672 C4.22758283,4.30440364 3.99501786,4.14873547 3.80975424,3.94141059 Z M5.15193002,3.97421958 C5.30697333,3.94629704 5.44165078,3.87509455 5.55596237,3.7613102 C5.67027397,3.6482239 5.75305133,3.49953636 5.80560838,3.31734178 C5.85816544,3.13514719 5.86801988,2.96412162 5.83648565,2.80426507 C5.80495142,2.64440852 5.73794118,2.50689 5.63479796,2.39101145 C5.53165474,2.27583096 5.39894817,2.18857302 5.23602131,2.12923762 C5.07309444,2.06990221 4.91739416,2.05175256 4.76760656,2.07478866 C4.61781895,2.09852282 4.48445543,2.16274467 4.36685902,2.26815226 C4.24926261,2.37355986 4.15794473,2.51526676 4.0942193,2.69327296 C4.03049387,2.87127917 4.01078498,3.04230474 4.03574958,3.20634967 C4.06071418,3.37039461 4.12706746,3.51489376 4.23480942,3.63914907 C4.34255138,3.76270632 4.48379847,3.85764297 4.65789371,3.92116675 C4.83198895,3.98538859 4.99688671,4.00214212 5.15193002,3.97421958 Z" id="Shape"></path>
                <path d="M7.54393296,5.12881669 C7.33633259,4.95011242 7.19048676,4.73371272 7.10639548,4.48310791 C7.02230419,4.23250309 7.01573456,3.97072926 7.08077391,3.69918254 C7.14581327,3.43042807 7.26866538,3.20634967 7.4467024,3.02415509 C7.62473943,2.84265856 7.83365372,2.71770519 8.07410224,2.64789883 C8.31455076,2.57739441 8.56091196,2.56971572 8.8171276,2.62416467 C9.07597109,2.67861363 9.3006525,2.78611542 9.49577056,2.94876422 C9.69088863,3.11141303 9.83739141,3.31105921 9.933965,3.55119307 C10.0305386,3.79132693 10.0627298,4.04821431 10.0259398,4.32325135 C9.98849295,4.60108065 9.88863454,4.83981838 9.72307982,5.03737036 C9.55686814,5.23492235 9.34598296,5.37593119 9.09042428,5.45620849 C8.8348656,5.5364858 8.56288285,5.54765482 8.28038868,5.48762135 C7.99789451,5.42758789 7.75153332,5.30682289 7.54393296,5.12881669 Z M8.8670568,4.96826207 C9.01618744,4.9180015 9.13969652,4.82864936 9.23824099,4.69950761 C9.33678547,4.57106391 9.39985394,4.41260349 9.42941728,4.22412633 C9.45898062,4.03634723 9.44715529,3.86532166 9.39656912,3.71104962 C9.34598296,3.55677758 9.26254863,3.43042807 9.14692311,3.33060499 C9.03129759,3.2307819 8.89005051,3.1637678 8.7225249,3.12816656 C8.55499929,3.09256531 8.39995598,3.09745176 8.25542408,3.14142976 C8.11089218,3.18610583 7.98804006,3.26917539 7.88489685,3.39063845 C7.78241059,3.51210151 7.71014464,3.66567549 7.66941292,3.85136039 C7.62868121,4.0370453 7.62999513,4.20946699 7.67466863,4.36792742 C7.71934212,4.52708591 7.80211948,4.66041605 7.92365767,4.76791783 C8.04519586,4.87472156 8.19564043,4.94801823 8.37433441,4.98641173 C8.55368536,5.02480522 8.71858312,5.01782459 8.8670568,4.96826207 Z" id="Shape"></path>
                <path d="M12.7543079,3.35224496 C12.9724197,3.47999058 13.1399453,3.65241228 13.2581987,3.8723023 C13.3764521,4.09219232 13.4349218,4.34419326 13.4296661,4.63039932 C13.4244104,4.91660537 13.3554292,5.16441793 13.2200948,5.37453506 C13.0847604,5.58465219 12.8929272,5.74381068 12.645252,5.84852021 C12.3975769,5.95322974 12.111141,5.99441549 11.789886,5.9692852 C11.3628599,5.93508009 11.1493469,5.91344012 10.7236347,5.86248148 C10.843859,4.72952434 10.9036427,4.1633948 11.0238669,3.03043766 C11.4108182,3.07650985 11.6046224,3.09605563 11.9922306,3.12746849 C12.2839223,3.14980653 12.5368531,3.22380126 12.7543079,3.35224496 Z M12.5473645,5.28727712 C12.7260585,5.13370313 12.8193473,4.90683248 12.8311726,4.61085354 C12.842998,4.31417653 12.7687611,4.07892911 12.6137178,3.9030171 C12.4586745,3.72710508 12.2346501,3.63007425 11.9377027,3.60564202 C11.7774037,3.59237882 11.6979111,3.58539818 11.5376121,3.57004078 C11.4732297,4.31976104 11.4410385,4.69462116 11.3766561,5.44434141 C11.5468096,5.46109494 11.6322148,5.46877364 11.8030252,5.48203685 C12.1190245,5.5078652 12.3686705,5.4408511 12.5473645,5.28727712 Z" id="Shape"></path>
                <path d="M17.3300565,2.98436546 C17.3517363,3.16725811 17.3629046,3.2594025 17.3845844,3.44229515 C16.9161697,3.50512087 16.6816338,3.53094922 16.2112482,3.57213497 C16.2335849,3.86322747 16.2454103,4.00912276 16.267747,4.30091332 C16.6369603,4.2688024 16.821567,4.24925662 17.1901233,4.20388249 C17.2098322,4.38398288 17.2196867,4.47403308 17.2393956,4.65413348 C16.8655835,4.70020567 16.677692,4.71975145 16.3025661,4.75256044 C16.340013,5.23282816 16.3584079,5.47296202 16.3958548,5.95322974 C16.1508076,5.97486971 16.0286124,5.98394454 15.7829082,6 C15.7172119,4.86215641 15.6843637,4.29323462 15.6193244,3.15539103 C16.3051939,3.1100169 16.6474717,3.07581179 17.3300565,2.98436546 Z" id="Path"></path>
                <path d="M19.1314495,5.41292855 C18.8752339,5.33474544 18.6623778,5.19583079 18.4935383,4.99967493 C18.3246987,4.80351908 18.2228694,4.5654794 18.1827947,4.28834818 C18.1433769,4.0140092 18.1742542,3.75642375 18.2708277,3.51559183 C18.3674013,3.2747599 18.5132472,3.0737176 18.7090222,2.9089746 C18.9041403,2.74492967 19.1281647,2.63533369 19.3837234,2.57879054 C19.6419099,2.52154933 19.8889281,2.52713384 20.1293766,2.59554407 C20.3691681,2.66395429 20.5780824,2.78751154 20.7561195,2.96761194 C20.9341565,3.1484104 21.0583225,3.37179073 21.1253328,3.63984714 C21.193,3.9106958 21.1884012,4.17246963 21.1075948,4.42307444 C21.0267883,4.67437732 20.8835703,4.89147508 20.6772839,5.07157548 C20.4709974,5.25167587 20.2246362,5.37453506 19.9421421,5.43666272 C19.6596479,5.49879037 19.3876652,5.49180974 19.1314495,5.41292855 Z M20.2909895,4.7169592 C20.4098999,4.60875934 20.4913633,4.47473114 20.5347229,4.31557265 C20.5780824,4.15641416 20.5780824,3.98399247 20.5360368,3.79900563 C20.4939911,3.61401879 20.4204113,3.46114287 20.3172681,3.34037787 C20.2134679,3.21961288 20.0906158,3.13793945 19.9467408,3.09396144 C19.8035228,3.04998344 19.6484795,3.04719118 19.4816109,3.08418855 C19.3140853,3.12118592 19.1728382,3.18959615 19.0565557,3.2901173 C18.9402732,3.39133651 18.8574959,3.51838408 18.8075667,3.67335419 C18.7582944,3.82762623 18.747783,3.9986518 18.7786603,4.1864309 C18.8095376,4.37420999 18.8739199,4.53197235 18.9731214,4.65971798 C19.0723228,4.78746361 19.1978028,4.87611768 19.3489043,4.92498213 C19.5000059,4.97314852 19.6649036,4.97873303 19.8435976,4.9389434 C20.0222916,4.89915378 20.1714222,4.82446098 20.2909895,4.7169592 Z" id="Shape"></path>
                <path d="M22.9017612,4.41469768 C22.6356911,4.37420999 22.406411,4.26670821 22.2132638,4.0963807 C22.0207736,3.92605319 21.8893809,3.70476705 21.8151441,3.43601258 C21.7422212,3.16935231 21.7409073,2.90967266 21.8072605,2.65697366 C21.8736138,2.40427465 21.994495,2.18368657 22.1685903,1.99241716 C22.3433425,1.80114775 22.5529138,1.66083697 22.8012458,1.56799452 C23.0522058,1.47375594 23.2998809,1.44373921 23.548213,1.4765482 C23.796545,1.50935718 24.0205695,1.60080351 24.2209433,1.75367943 C24.421317,1.90655534 24.5730755,2.10969184 24.6735909,2.36657922 C24.7747632,2.6255608 24.8023557,2.88524044 24.7530834,3.14631621 C24.7031542,3.40739198 24.5868718,3.64403552 24.4029221,3.85275652 C24.2189724,4.06147752 23.9877213,4.21923988 23.7137677,4.32185523 C23.439814,4.42516863 23.1678313,4.45588343 22.9017612,4.41469768 Z M23.9739251,3.55607951 C24.0796962,3.4318242 24.1440786,3.28662698 24.1683862,3.12258205 C24.1920369,2.95853711 24.1710141,2.78751154 24.1059747,2.60950534 C24.0409354,2.4321972 23.9483035,2.29118836 23.8300502,2.18647883 C23.7117968,2.08176929 23.5784333,2.01824551 23.4293026,1.99590748 C23.280829,1.97356944 23.1257856,1.99241716 22.9628588,2.05384675 C22.7999319,2.11457828 22.6678823,2.20323235 22.5640821,2.31980896 C22.4602819,2.43708364 22.3932717,2.57530022 22.3630514,2.73515678 C22.3328311,2.89571139 22.3439995,3.06673696 22.3978704,3.24823349 C22.4517414,3.42973001 22.5358327,3.57771948 22.6508013,3.69010771 C22.7657698,3.80249594 22.9017612,3.8723023 23.0587754,3.89882871 C23.2151326,3.92535513 23.3813443,3.90580935 23.5547826,3.84088944 C23.7282209,3.77596953 23.868154,3.68033482 23.9739251,3.55607951 Z" id="Shape"></path>
                <path d="M26.6063766,0.0231798855 C26.8612783,0.0113128052 27.0931863,0.0650636985 27.3047284,0.18722482 C27.5156136,0.309385941 27.6897089,0.492976655 27.8230724,0.741487278 C27.9564359,0.989997902 28.0155626,1.24130078 27.9965107,1.49818817 C27.9774587,1.75437749 27.8848269,1.99869973 27.7159874,2.22696651 C27.5478048,2.45593136 27.3139259,2.65069109 27.0189494,2.80705732 C26.6254285,3.01508026 26.4276826,3.11490335 26.0289059,3.30617276 C25.5874267,2.26675613 25.366687,1.74739685 24.9252078,0.708678292 C25.2871945,0.534860468 25.4672024,0.444112206 25.8245904,0.255635048 C26.0926314,0.11253202 26.3514749,0.0350469659 26.6063766,0.0231798855 Z M27.3585994,1.79975162 C27.4426907,1.56799452 27.4157552,1.32088002 27.2823917,1.06050232 C27.1490282,0.800124617 26.9703342,0.638871937 26.7476237,0.57465009 C26.5255701,0.510428243 26.2805228,0.552312056 26.0072261,0.696113148 C25.8600664,0.773598202 25.7858296,0.811991697 25.6373559,0.88738256 C25.9428438,1.56659839 26.0952592,1.90655534 26.4007471,2.58577118 C26.5590752,2.50549387 26.6372538,2.46500618 26.794925,2.38193662 C27.0859597,2.22836264 27.2745081,2.03150872 27.3585994,1.79975162 Z" id="Shape"></path>
            </g>
        </g>
    </g>
</svg>