<?xml version="1.0" encoding="UTF-8"?>
<svg width="68.000001px" height="79px" viewBox="0 0 68.000001 79" version="1.1" xmlns="http://www.w3.org/2000/svg" xmlns:xlink="http://www.w3.org/1999/xlink">
    <title>Logo</title>
    <g id="productos" stroke="none" stroke-width="1" fill="none" fill-rule="evenodd">
        <g id="HEADER" transform="translate(-1627, -1384)">
            <g id="Logo" transform="translate(1627, 1384)">
                <line x1="15.0015" y1="71.019" x2="14.9985" y2="70.981" id="Path"></line>
                <polygon id="Path" fill="#000000" fill-rule="nonzero" points="29.0148498 62 29.4718191 63.5277729 31 63.5411744 29.7546406 64.4715218 30.2116099 66 28.9844752 65.0470816 27.7391158 65.9781344 28.2264597 64.4588256 27 63.5059072 28.5275059 63.5193088"></polygon>
                <polygon id="Path" fill="#000000" fill-rule="nonzero" points="35.0148498 63 35.4718191 64.5284782 37 64.5411744 35.7546406 65.4722271 36.2116099 67 34.9844752 66.047787 33.7391158 66.9788397 34.2264597 65.4588256 33 64.5066126 34.5275059 64.5200141"></polygon>
                <polygon id="Path" fill="#000000" fill-rule="nonzero" points="40.0148498 62 40.4718191 63.5277729 42 63.5411744 40.7546406 64.4715218 41.2116099 66 39.9851502 65.0470816 38.7391158 65.9781344 39.2264597 64.4588256 38 63.5059072 39.5275059 63.5193088"></polygon>
                <path d="M51.998941,37.6078767 C52.0083391,37.7682608 51.9548417,37.9672829 51.8521846,38.0985062 C50.3932958,40.0617531 46.6202826,39.740256 44.9792135,38.8690788 C44.4977368,38.6131933 44.0473465,38.2537872 43.6143066,37.7310809 C43.0402939,37.0392423 43.0128223,36.7833568 42.7735298,35.9121796 C42.7540105,35.8414648 42.6629203,35.5053873 42.6629203,35.5053873 C42.3426588,35.414989 42.0202285,35.3296938 41.6949064,35.257521 C36.8678497,34.1669092 32.1282685,34.7734527 27.4364012,36.0645445 C23.9019576,37.0385133 20.5063181,38.3718882 17.2986424,40.173293 C16.8496979,40.4240754 16.3891865,40.6537162 15.7327588,41 C15.9590384,37.2754443 16.1477252,33.7739683 16.4043682,30.2768663 C16.4564197,29.5500348 16.2612264,29.2781109 15.5766042,29.0579473 C8.43686903,26.765184 5.66657081,17.8820931 10.2254175,11.9012251 C12.0580652,9.49692192 14.5109937,8.60168715 17.4584117,9.16084437 C19.3091328,9.51150229 20.9487561,10.364454 22.4322248,11.5819149 C22.1705212,11.4718331 21.9153241,11.3427969 21.6463912,11.2553146 C20.5157163,10.8959085 19.4038377,10.4256915 18.2456911,10.2201083 C14.3403803,9.52972775 11.5028489,11.46673 10.5384496,15.3764564 C9.2631871,20.5408238 13.0152351,25.6286441 18.3548547,25.9749279 C18.9303133,26.0128369 19.5079408,26.0471008 20.2381081,26.0915709 C20.0624342,28.9697361 19.8882061,31.8420691 19.7016881,34.9185274 C20.3848645,34.6925316 20.8627265,34.5350636 21.3413114,34.3754085 C23.4298791,33.6770088 25.5357974,33.1302449 27.6662955,32.7890642 C27.6728019,32.7876062 27.684369,32.7839611 27.7002736,32.782503 C29.094098,32.5594234 30.4980434,32.4282 31.912833,32.3968522 C35.5101722,32.2131396 40.5880884,32.3232214 43.8608285,33.9627841 C44.1485578,33.7499106 44.4774945,33.6165002 44.8136607,33.5049604 C45.4563525,33.292087 46.0267506,33.2264753 46.5703999,33.2673004 C48.4225669,33.4021688 51.8088083,35.1540003 51.998941,37.6078767 Z" id="Path" fill="#000000" fill-rule="nonzero"></path>
                <path d="M21,7.26888133 C21.1211624,4.74832832 24.4472172,1.4270351 27.8028238,0.477471922 C32.9788212,-0.987526923 37.1677885,0.89272432 41.075275,6.47757869 C42.7922344,5.62239106 44.6185355,5.0960659 46.5748646,5.09243607 C47.0587752,5.09098414 47.5338204,5.11857084 48,5.17156634 C45.1305204,6.24672158 43.0648498,7.65364317 41.6567066,8.88633298 C40.3453456,10.0333588 39.4454934,11.1578798 38.8721885,12 C38.5256936,6.82459031 36.434904,3.03722709 30.9146281,2.22196757 C26.4833361,1.56859841 23.2939583,3.66518745 21,7.26888133 Z" id="Path" fill="#000000" fill-rule="nonzero"></path>
                <path d="M58.4356763,21.0418192 C57.3726772,24.3893132 54.7896476,26.1744466 51.1377783,26.0674861 C50.4259485,26.0468316 49.7236098,25.9774918 49.0285719,25.8705313 L48.4138429,30.9367694 L48.1634249,33 L46.4477326,32.2800454 C46.3564723,32.2424248 46.2330885,32.1952147 46.1228461,32.1524305 L45.7789776,32.0248156 C45.5468116,31.9385095 45.3131854,31.8566294 45.0788291,31.775487 C44.6093865,31.6132022 44.1348333,31.4597692 43.6580898,31.3122375 C42.7038729,31.0171741 41.7394348,30.7501418 40.7669658,30.5155664 C38.8227578,30.045678 36.8456962,29.6960279 34.8533029,29.5396443 C32.86456,29.386949 30.848804,29.4253073 28.8936448,29.8479855 C27.9167953,30.0582182 26.9611182,30.376149 26.0587371,30.8261206 C25.1563559,31.2738793 24.3196821,31.8735956 23.596171,32.6068281 C24.2255016,31.7909778 24.9993883,31.0747115 25.8718361,30.4978626 C26.7428237,29.9195384 27.6992309,29.4651408 28.6906821,29.1199167 C30.6772348,28.4250424 32.7827908,28.1240778 34.8752053,28.0267069 C36.9712703,27.9322866 39.0709857,28.0399847 41.1539091,28.2789861 C42.1957359,28.3984867 43.2331822,28.551182 44.2677082,28.7355966 C44.6539215,28.8056742 45.0394047,28.8809153 45.4248879,28.9583695 L45.425618,26.1331377 C45.4248879,25.4707204 45.0116616,24.8769054 44.3918221,24.6592961 C44.2487261,24.6083977 44.1048999,24.5567616 43.962534,24.5043879 C40.1931214,23.1330809 36.4609431,21.6607146 32.6893403,20.2930959 C31.4540418,19.8460749 30.2019515,19.4676561 28.9250384,19.2338184 C28.8403489,19.2684883 28.7819423,19.3097972 28.752739,19.357745 C28.5702186,19.6668239 28.341703,20.0312272 27.9554897,20.0341778 L27.2925754,20.0408167 L22.0571585,20.012048 C21.5453711,20.016474 21.5008361,20.0253259 21.018252,19.8667293 C21.5212784,19.6646109 21.5241988,19.6778888 22.0703,19.6712498 L27.288925,19.6210891 L27.2852745,19.3238127 L22.0520479,19.3747112 C21.5402606,19.3791371 21.4957256,19.3496308 21.0116813,19.1895589 C21.5147077,18.9874405 21.517628,18.9608848 22.0637292,18.9549835 L27.2823542,18.9048227 L27.2794339,18.614923 L22.0462073,18.6658214 C21.5344199,18.6702474 21.4898849,18.6392657 21.0058407,18.4806691 C21.508867,18.2785507 21.5117874,18.2505197 22.0578886,18.2460938 L27.2765136,18.195933 L27.2728632,17.8986566 L22.0389065,17.9495551 C21.5271191,17.953981 21.4825841,17.9635706 21,17.8042364 C21.5030264,17.602118 21.5059467,17.6153958 22.0520479,17.6087569 L27.2692127,17.478929 L27.9321271,17.4722901 C28.3190704,17.4693394 28.5541568,17.8271038 28.743248,18.1339697 C28.8089553,18.2409302 28.9790644,18.2652729 29.0863864,18.3117454 C29.2418939,18.3781346 29.3842598,18.3523166 29.5492583,18.3582178 C29.7164471,18.3648568 29.8821756,18.3722334 30.0479042,18.3825606 C30.3676801,18.401002 30.6859957,18.4260824 31.0035813,18.4585394 C32.3045872,18.5927932 33.5931816,18.8354828 34.8693647,19.1253826 C36.1418973,19.4145447 37.4042088,19.7501793 38.6694406,20.0754867 C41.8423763,20.8920745 45.0123917,21.7381688 48.2145306,22.4212405 C49.449099,22.6845845 50.7763878,22.6410627 52.0489204,22.5532813 C53.5813622,22.4477962 54.5209775,21.5117076 54.9436949,20.0017208 C55.9103233,16.5480041 54.6837858,12.8191407 51.8634796,10.7581231 C48.9876873,8.65653419 45.2270357,8.62776551 42.2453815,10.7072246 C41.5591046,11.1852273 40.8991106,11.6993752 40.1500466,12.2710605 C40.7056389,11.4950438 41.4933972,10.550841 42.5666175,9.58672147 C43.5339759,8.71775984 44.5977052,7.95870931 45.720571,7.30883224 C47.0150061,6.56010893 48.4737097,5.95670434 49.9908197,6.00243916 C51.5867786,6.0496493 52.9746642,6.90975903 54.2245643,7.84068396 C55.675967,8.92135356 56.8733012,10.3420837 57.7019441,11.9597686 C59.1321744,14.7547564 59.3862429,18.046926 58.4356763,21.0418192 Z" id="Path" fill="#000000" fill-rule="nonzero"></path>
                <path d="M23,12 C23.0532887,11.6405492 23.1499188,11.2868267 23.2678644,10.9409806 C23.3850995,10.5937025 23.5300447,10.2557328 23.6970158,9.9263556 C24.0295371,9.26688512 24.453715,8.64393256 24.975944,8.09473185 C25.4953309,7.5448151 26.112769,7.07079832 26.8012586,6.7185079 L27.0598863,6.58747305 C27.1487008,6.54880703 27.2396468,6.51515327 27.3291717,6.47863536 L27.5998782,6.37194579 C27.6901137,6.33685995 27.7846123,6.31466279 27.8769793,6.28530526 C28.0631344,6.23160245 28.248579,6.17360342 28.4397077,6.14424588 L28.7246244,6.09125911 C28.8198335,6.07264214 28.9150426,6.05545724 29.0109622,6.0490129 C29.7783191,5.95019974 30.5485181,6.01034688 31.2881648,6.14424588 C31.4721884,6.1829119 31.6569225,6.21942981 31.839525,6.26095998 C32.0192854,6.31179864 32.1976248,6.36693352 32.3752538,6.42206841 L32.6416971,6.50512875 L32.9003248,6.60609003 L33.4140276,6.81374088 C33.5831303,6.88606066 33.7444174,6.9748493 33.909257,7.05576153 C34.0719651,7.14025395 34.2389363,7.21543788 34.3959602,7.30923878 C34.7078766,7.4989887 35.0233455,7.68086221 35.3217621,7.88708099 C35.615205,8.10117618 35.9114901,8.30739496 36.1914332,8.53652694 C36.4678238,8.76995514 36.7378197,9.00982768 37,9.2568606 C35.6770199,8.68904292 34.3945392,8.11764504 33.0800853,7.73098483 C31.7698944,7.3536331 30.4369671,7.13094546 29.1537759,7.2827454 C29.0727771,7.28560955 28.9939099,7.2999303 28.9143321,7.31425105 L28.6770199,7.35506518 C28.5164434,7.37439819 28.364393,7.42595289 28.2087901,7.46390287 C28.1313439,7.48466795 28.0517661,7.4989887 27.975741,7.52548209 L27.748376,7.60496224 C27.6730613,7.63217167 27.5956151,7.6558009 27.521011,7.68515844 C27.4478279,7.71881219 27.3732237,7.7496018 27.2993301,7.78182349 C26.7074706,8.03816489 26.1504263,8.38830719 25.6324604,8.80862117 C25.112363,9.22678703 24.638449,9.72013682 24.2014819,10.2578809 C23.7616728,10.7927609 23.3644945,11.3756154 23,12 Z" id="Path" fill="#000000" fill-rule="nonzero"></path>
                <g id="Group" transform="translate(0, 41)" fill="#000000" fill-rule="nonzero">
                    <path d="M1.13555383,4.11303987 C1.89331277,2.81756645 2.92826529,1.80801495 4.23968763,1.08509136 C5.55110998,0.362167774 7.02175579,0 8.65162507,0 C10.5579642,0 12.2283631,0.477242525 13.6628217,1.43102159 C15.0965566,2.38480066 16.0989407,3.70427741 16.6692502,5.38874585 L12.7335357,5.38874585 C12.3427145,4.59381229 11.7926698,3.99796512 11.0834016,3.60049834 C10.3748572,3.20303156 9.5555801,3.00394518 8.62701781,3.00394518 C7.6325949,3.00394518 6.74890468,3.23056478 5.97522339,3.68380399 C5.20081836,4.13704319 4.59794043,4.77666113 4.16658959,5.60336379 C3.73451501,6.43006645 3.51883959,7.40008306 3.51883959,8.51200166 C3.51883959,9.60909468 3.73451501,10.5741694 4.16658959,11.4093439 C4.59794043,12.2438123 5.2015421,12.8876661 5.97522339,13.3401993 C6.74890468,13.7934385 7.63331864,14.0200581 8.62701781,14.0200581 C9.5555801,14.0200581 10.3748572,13.8174419 11.0834016,13.4122093 C11.791946,13.0069767 12.3419907,12.4068937 12.7335357,11.6119601 L16.6692502,11.6119601 C16.098217,13.3133721 15.1008991,14.6363787 13.6751254,15.581686 C12.2493516,16.5276993 10.5746103,17 8.65234881,17 C7.02247954,17 5.55183372,16.6385382 4.24041138,15.9149086 C2.92826529,15.191985 1.89403651,14.1859635 1.13627757,12.8989618 C0.378518634,11.6112542 0,10.1491694 0,8.51200166 C-0.000722707126,6.87553987 0.377794891,5.40921927 1.13555383,4.11303987 Z" id="Path"></path>
                    <polygon id="Path" points="36.1994555 0.21461794 36.1994555 16.857392 32.7775986 16.857392 32.7775986 9.77570598 25.4692416 9.77570598 25.4692416 16.857392 22.0473846 16.857392 22.0473846 0.21461794 25.4692416 0.21461794 25.4692416 7.05768272 32.7775986 7.05768272 32.7775986 0.21461794"></polygon>
                    <polygon id="Path" points="45.4387589 2.90934385 45.4387589 7.08168605 51.1831072 7.08168605 51.1831072 9.72840532 45.4387589 9.72840532 45.4387589 14.1393688 51.9162589 14.1393688 51.9162589 16.857392 42.0169019 16.857392 42.0169019 0.190614618 51.9162589 0.190614618 51.9162589 2.90863787 45.4387589 2.90863787"></polygon>
                    <polygon id="Path" points="68 0.21461794 68 2.90863787 60.8870536 2.90863787 60.8870536 7.17628738 66.338286 7.17628738 66.338286 9.82300664 60.8870536 9.82300664 60.8870536 16.856686 57.4651966 16.856686 57.4651966 0.21391196 68 0.21391196"></polygon>
                </g>
                <path d="M7.71351407,20 C4.86392438,22.9659678 2.6062117,26.3462091 1,30 L2.45278903,30 C3.87140334,26.9313613 5.75028565,24.1089891 8,21.6233487 C7.86402825,21.0834291 7.76877532,20.5406376 7.71351407,20 Z" id="Path" fill="#000000" fill-rule="nonzero"></path>
                <path d="M58.4396623,20 C58.3618204,20.334276 58.2724465,20.6656515 58.1672158,20.9934015 C58.1153213,21.1565514 58.0605437,21.3146255 58,21.4712494 C60.2574135,23.9982597 62.1414745,26.8711479 63.5599259,30 L65,30 C63.4258649,26.3505185 61.2189044,22.9722283 58.4396623,20 Z" id="Path" fill="#000000" fill-rule="nonzero"></path>
                <path d="M62.4601604,61 C56.5795726,70.9781045 45.5762122,77.7061691 33,77.7061691 C20.4237878,77.7061691 9.42042738,70.9788237 3.53983955,61 L2,61 C3.59632724,63.850887 5.61447807,66.494646 8.02584187,68.8586383 C14.6965237,75.3982739 23.5658234,79 33,79 C42.4341766,79 51.3034763,75.3982739 57.9741581,68.8586383 C60.3855219,66.494646 62.4036728,63.850887 64,61 L62.4601604,61 Z" id="Path" fill="#000000" fill-rule="nonzero"></path>
                <path d="M8.6916705,23 C6.83862556,25.1216403 5.25786164,27.4700946 4,30 L4.76928977,30 C5.92514189,27.7311165 7.34867311,25.6131945 9,23.6841602 C8.88955361,23.4603208 8.78677711,23.2327632 8.6916705,23 Z" id="Path" fill="#000000" fill-rule="nonzero"></path>
                <path d="M58.3706636,22 C58.255506,22.193212 58.1309918,22.3799836 58,22.5588837 C59.6805815,24.5117563 61.1214913,26.6735841 62.2781057,29 L63,29 C61.7692529,26.4610509 60.2081474,24.1088734 58.3706636,22 Z" id="Path" fill="#000000" fill-rule="nonzero"></path>
                <path d="M60.2274218,60 C54.6287763,69.1990191 44.7402122,75.3208829 33.5,75.3208829 C22.2597878,75.3208829 12.3712237,69.1990191 6.77257817,60 L6,60 C11.6743029,69.5898887 21.8785911,76 33.5,76 C45.1214089,76 55.3256971,69.5898887 61,60 L60.2274218,60 Z" id="Path" fill="#000000" fill-rule="nonzero"></path>
                <g id="Group" transform="translate(18, 66)" fill="#000000" fill-rule="nonzero">
                    <path d="M2.64177022,1.53776907 C2.62722317,1.37570198 2.57558118,1.23155186 2.48757157,1.10287547 C2.39956197,0.974199093 2.27882152,0.867511714 2.12535023,0.781998929 C1.95514984,0.686713254 1.78640416,0.640292028 1.61838582,0.641920843 C1.45036749,0.643549658 1.29398679,0.694857329 1.14997108,0.795843856 C1.00595536,0.896830383 0.887396972,1.04098051 0.795023256,1.23155186 C0.700467484,1.42700965 0.656826359,1.62083863 0.665554584,1.8138532 C0.674282809,2.00686777 0.731016272,2.1844086 0.836482325,2.34566128 C0.941948379,2.50691396 1.09032821,2.6421056 1.2801671,2.74879298 C1.51437447,2.87991258 1.73403481,2.92307618 1.93478398,2.87991258 C2.13626051,2.83674899 2.30427885,2.71703109 2.44102104,2.5215733 C2.02424829,2.30656972 1.81695294,2.19418149 1.40527166,1.96044655 C1.48746245,1.77883368 1.52892152,1.68762004 1.6111123,1.50600717 C2.24972744,1.8684185 2.57267177,2.03862966 3.22437924,2.35624858 C3.1414611,2.56962334 3.10000203,2.67631072 3.0170839,2.88887107 C2.89343404,3.08107123 2.72832512,3.23499424 2.52030242,3.34656807 C2.31227972,3.45814189 2.07661764,3.51189278 1.81477089,3.50619193 C1.55292414,3.50049108 1.28598592,3.42312237 1.01832035,3.27327139 C0.717923935,3.10550345 0.477170392,2.88317021 0.299696482,2.61278693 C0.122222572,2.34240365 0.0240300393,2.05166018 0.00366418075,1.74381416 C-0.0167016778,1.43596813 0.0480326583,1.14115263 0.192775725,0.856924417 C0.337518791,0.572696208 0.531721799,0.35932145 0.770293285,0.212728104 C1.00959212,0.0661347586 1.26852947,-0.00390428426 1.54783267,0.000167753113 C1.82713587,0.00423979049 2.09989291,0.0816085006 2.36901318,0.232273883 C2.68686605,0.41062912 2.92980164,0.640292028 3.10072939,0.929406682 C3.27165713,1.21852134 3.34657439,1.53614025 3.32111707,1.88389224 C3.04981474,1.74951501 2.91307255,1.68029037 2.64177022,1.53776907 Z" id="Path"></path>
                    <path d="M4.2179422,4.59831236 C4.01282891,4.35643334 3.88117818,4.08116361 3.82226266,3.77657521 C3.76407449,3.47198682 3.79171387,3.16821283 3.90154404,2.86525325 C4.0099195,2.56473689 4.17721048,2.32692991 4.39905287,2.14694586 C4.62089526,1.96696181 4.86892232,1.85864561 5.14531612,1.81792524 C5.42170991,1.77801927 5.69446694,1.81059557 5.97086074,1.91646854 C6.24943659,2.02315592 6.48291661,2.18522301 6.67711962,2.40592743 C6.87059528,2.62663186 7.00442806,2.88235581 7.07861797,3.1755425 C7.15280789,3.46872919 7.15280789,3.77168877 7.07352651,4.08360683 C6.99351778,4.39796812 6.85095677,4.6577641 6.64075202,4.85892275 C6.43054726,5.06008139 6.17742873,5.18712896 5.88430584,5.23762222 C5.5904556,5.28811549 5.28933183,5.25472478 4.9845713,5.13826451 C4.68053813,5.02180424 4.42378284,4.84019138 4.2179422,4.59831236 Z M5.70392252,4.63658951 C5.87557761,4.60401321 6.02468479,4.52094365 6.15124406,4.38819523 C6.27780332,4.25626122 6.36944968,4.08279242 6.42763785,3.87023207 C6.48582602,3.65767172 6.4967363,3.45814189 6.4618234,3.27164258 C6.4269105,3.08514327 6.35272059,2.924705 6.23852631,2.78951335 C6.12433203,2.65513612 5.97740691,2.55333519 5.79702359,2.48411055 C5.61664027,2.41488592 5.44425782,2.39371132 5.27842155,2.42058677 C5.11258527,2.44827662 4.9649328,2.52320211 4.83473677,2.64617764 C4.70454075,2.76915317 4.60343881,2.93447789 4.53288565,3.14215179 C4.4623325,3.3498257 4.44051194,3.54935553 4.46815132,3.74074129 C4.4957907,3.93212704 4.56925326,4.10070939 4.688539,4.24567392 C4.80782474,4.38982404 4.96420544,4.50058346 5.15695375,4.57469454 C5.34970205,4.64962003 5.53226743,4.66916581 5.70392252,4.63658951 Z" id="Shape"></path>
                    <path d="M8.35221149,5.98361947 C8.12236823,5.77513116 7.96089606,5.52266484 7.86779499,5.23029256 C7.77469393,4.93792027 7.7674204,4.63251747 7.83942826,4.31571296 C7.91143612,4.00216608 8.04745096,3.74074129 8.24456338,3.52818093 C8.44167579,3.31643499 8.67297376,3.17065605 8.93918462,3.08921531 C9.20539549,3.00696015 9.47815252,2.99800167 9.76181984,3.06152545 C10.0483966,3.12504923 10.297151,3.25046799 10.5131745,3.44022493 C10.7291981,3.62998187 10.8913976,3.86290241 10.9983184,4.14305858 C11.1052392,4.42321475 11.1408794,4.7229167 11.1001477,5.04379325 C11.0586886,5.36792742 10.9481311,5.64645478 10.7648384,5.87693209 C10.5808183,6.10740941 10.3473383,6.27191972 10.0643983,6.36557658 C9.78145835,6.45923344 9.48033458,6.47226396 9.16757318,6.40222491 C8.85481178,6.33218587 8.58205475,6.19129338 8.35221149,5.98361947 Z M9.81782595,5.79630575 C9.98293488,5.73766841 10.1196771,5.63342426 10.2287799,5.48275887 C10.3378827,5.3329079 10.4077085,5.1480374 10.4404393,4.92814738 C10.4731702,4.70907177 10.4600778,4.50954194 10.4040717,4.32955789 C10.3480656,4.14957384 10.2556919,4.00216608 10.1276779,3.88570582 C9.99966397,3.76924555 9.84328327,3.69106243 9.65780849,3.64952765 C9.47233371,3.60799287 9.30067861,3.61369372 9.14066115,3.66500139 C8.98064369,3.71712347 8.84462885,3.81403796 8.73043457,3.95574486 C8.61696765,4.09745176 8.53695892,4.2766214 8.49186309,4.49325379 C8.44676726,4.70988618 8.44822196,4.91104483 8.4976819,5.09591532 C8.54714185,5.28160023 8.63878821,5.43715206 8.77334835,5.56257081 C8.90790848,5.68717515 9.07447211,5.77268794 9.27231188,5.81748035 C9.47015165,5.86227276 9.65271703,5.85412868 9.81782595,5.79630575 Z" id="Shape"></path>
                    <path d="M14.1215683,3.91095245 C14.3630492,4.05998902 14.548524,4.26114766 14.6794473,4.51768602 C14.8103707,4.77422437 14.875105,5.06822547 14.8692862,5.40213253 C14.8634674,5.7360396 14.7870954,6.02515425 14.6372609,6.2702909 C14.4874264,6.51542755 14.2750396,6.70111246 14.0008278,6.82327358 C13.7266161,6.9454347 13.4094906,6.99348474 13.0538154,6.96416607 C12.5810365,6.9242601 12.3446471,6.89901347 11.873323,6.83956173 C12.0064284,5.5177784 12.0726174,4.85729393 12.2057229,3.5355106 C12.6341332,3.5892615 12.8487021,3.6120649 13.2778398,3.64871324 C13.6000568,3.67477428 13.8800874,3.76110147 14.1215683,3.91095245 Z M13.8924524,6.16848997 C14.0902921,5.98932032 14.1935761,5.72463789 14.2066685,5.37932912 C14.2197608,5.03320595 14.13757,4.75875063 13.9659149,4.55351995 C13.7942598,4.34828926 13.5462328,4.23508662 13.2174696,4.20658236 C13.0399957,4.19110862 12.9519861,4.18296454 12.7745122,4.16504758 C12.7032317,5.03972121 12.6675914,5.47705802 12.5963109,6.35173165 C12.7846951,6.37127743 12.8792509,6.38023591 13.0683624,6.39570965 C13.4174915,6.42584273 13.6938852,6.34765961 13.8924524,6.16848997 Z" id="Shape"></path>
                    <path d="M19.1875756,3.48175971 C19.2115782,3.69513447 19.2239432,3.80263625 19.2479458,4.01601101 C18.7293438,4.08930768 18.4696791,4.11944076 17.948895,4.1674908 C17.973625,4.50709872 17.9867173,4.67730988 18.0114473,5.01773221 C18.4202191,4.98026946 18.6246051,4.95746605 19.0326496,4.90452957 C19.0544702,5.1146467 19.0653804,5.21970526 19.087201,5.42982239 C18.6733377,5.48357328 18.465315,5.50637669 18.0499969,5.54465384 C18.091456,6.10496619 18.1118218,6.38512236 18.1532809,6.9454347 C17.8819786,6.97068133 17.7466911,6.98126863 17.4746614,7 C17.4019262,5.67251582 17.3655586,5.00877372 17.2935507,3.68128954 C18.052179,3.62835305 18.4318568,3.58844709 19.1875756,3.48175971 Z" id="Path"></path>
                    <path d="M21.1812477,6.31508331 C20.8975804,6.22386968 20.6619183,6.06180259 20.4749888,5.83295409 C20.2880593,5.60410559 20.1753197,5.32639264 20.1309513,5.00307287 C20.0873101,4.68301073 20.1214957,4.38249438 20.2284164,4.1015238 C20.3353372,3.82055322 20.4968094,3.58600387 20.7135603,3.3938037 C20.9295839,3.20241794 21.1776109,3.07455597 21.4605509,3.00858897 C21.7464002,2.94180755 22.0198846,2.94832281 22.2860955,3.02813474 C22.551579,3.10794668 22.782877,3.2520968 22.9799894,3.46221393 C23.1771018,3.67314546 23.3145714,3.93375586 23.3887613,4.24648833 C23.4636785,4.56247843 23.4585871,4.86788123 23.3691228,5.16025351 C23.2796585,5.45344021 23.1210957,5.70672093 22.8927071,5.91683806 C22.6643186,6.12695519 22.3915616,6.2702909 22.0788002,6.34277317 C21.7660388,6.41688425 21.464915,6.40711136 21.1812477,6.31508331 Z M22.4650241,5.50311906 C22.5966748,5.3768859 22.6868665,5.22051967 22.7348717,5.03483476 C22.782877,4.84914986 22.782877,4.64799121 22.7363264,4.43217323 C22.6897759,4.21635525 22.6083125,4.03800001 22.4941182,3.89710752 C22.3791966,3.75621503 22.2431817,3.66092935 22.0838916,3.60962168 C21.9253289,3.55831401 21.7536738,3.55505638 21.5689263,3.59821998 C21.3834516,3.64138357 21.2270709,3.72119551 21.0983295,3.83847018 C20.9695882,3.95655927 20.8779419,4.10478143 20.8226631,4.28557989 C20.7681117,4.46556394 20.7564741,4.66509377 20.7906596,4.88416938 C20.8248452,5.10324499 20.8961257,5.28730108 21.0059558,5.43633765 C21.115786,5.58537422 21.2547102,5.68880397 21.4220012,5.74581249 C21.5892922,5.8020066 21.7718576,5.80852186 21.9696973,5.76210064 C22.1675371,5.71567941 22.3333734,5.62853781 22.4650241,5.50311906 Z" id="Shape"></path>
                    <path d="M25.3562487,5.15048062 C25.0616711,5.10324499 24.8078252,4.97782624 24.5939837,4.77911082 C24.3808695,4.58039539 24.2353991,4.32222822 24.1532083,4.00868134 C24.0724722,3.69757769 24.0710175,3.39461811 24.1444801,3.0998026 C24.2179427,2.8049871 24.3517754,2.54763433 24.5452511,2.32448669 C24.7387268,2.10133904 24.9707521,1.93764314 25.2456912,1.82932694 C25.5235397,1.71938193 25.7977514,1.68436241 26.0726905,1.72263956 C26.3476296,1.76091671 26.5956566,1.86760409 26.817499,2.04595933 C27.0393414,2.22431457 27.2073598,2.46130714 27.3186446,2.76100909 C27.4306568,3.06315427 27.4612056,3.36611385 27.4066542,3.67070224 C27.3513755,3.97529064 27.2226341,4.25137477 27.0189756,4.49488261 C26.815317,4.73839044 26.559289,4.92244653 26.2559832,5.04216443 C25.95195,5.16269674 25.6500989,5.19853067 25.3562487,5.15048062 Z M26.5425599,4.14875943 C26.6596636,4.0037949 26.7309441,3.83439815 26.7578562,3.64301239 C26.7840408,3.45162663 26.7607656,3.2520968 26.6887577,3.04442289 C26.6167499,2.8375634 26.5141932,2.67305309 26.3832698,2.55089196 C26.2523465,2.42873084 26.1039666,2.35461976 25.9395851,2.32855872 C25.7752035,2.30249768 25.6035484,2.32448669 25.4231651,2.39615454 C25.2427818,2.46700799 25.096584,2.57043774 24.9816624,2.70644379 C24.8667407,2.84326425 24.7925508,3.00451693 24.7590926,3.19101624 C24.7256344,3.37832996 24.7379994,3.57785979 24.7976423,3.78960573 C24.8572851,4.00135168 24.9503862,4.17400606 25.0776728,4.30512567 C25.2049594,4.43624527 25.3555213,4.51768602 25.5293585,4.5486335 C25.7024683,4.57958098 25.8864884,4.55677758 26.0785093,4.48103768 C26.2705303,4.40529778 26.4254563,4.29372396 26.5425599,4.14875943 Z" id="Shape"></path>
                    <path d="M29.4570598,0.0270431998 C29.7392724,0.0131982727 29.9960277,0.0759076483 30.230235,0.218428956 C30.4637151,0.360950265 30.6564634,0.57513943 30.8041158,0.865068491 C30.9517683,1.15499755 31.01723,1.44818424 30.9961368,1.74788619 C30.9750436,2.04677374 30.8724869,2.33181635 30.6855575,2.5981276 C30.4993553,2.86525325 30.240418,3.09247294 29.9138369,3.27490021 C29.478153,3.51759364 29.25922,3.63405391 28.8177173,3.85720155 C28.3289367,2.64454882 28.0845464,2.03862966 27.5957658,0.82679134 C27.9965368,0.624003879 28.1958312,0.518130907 28.5915108,0.298240889 C28.8882704,0.131287357 29.1755745,0.0408881269 29.4570598,0.0270431998 Z M30.2898779,2.09971022 C30.382979,1.82932694 30.3531575,1.5410267 30.2055051,1.23725271 C30.05858,0.932664312 29.8600128,0.745350593 29.6134405,0.670425105 C29.3675955,0.595499617 29.0962931,0.644364066 28.7937147,0.812132006 C28.6307878,0.902531235 28.548597,0.947323646 28.3842154,1.03527965 C28.7224342,1.82769813 28.8911798,2.22431457 29.2293986,3.01673304 C29.4046904,2.92307618 29.4912453,2.87584055 29.6658098,2.77892606 C29.9880268,2.59975641 30.1967768,2.37009351 30.2898779,2.09971022 Z" id="Shape"></path>
                </g>
            </g>
        </g>
    </g>
</svg>